<svg xmlns="http://www.w3.org/2000/svg" viewBox="0 0 220 220">
  <g fill="none" stroke="#7dd3fc" stroke-width="5" stroke-linecap="round" stroke-linejoin="round" opacity=".34">
    <path d="M40 64 29 31l31 23 31-23-11 33c13 20-3 39-20 39S27 84 40 64Z"/>
    <path d="M139 150 128 117l31 23 31-23-11 33c13 20-3 39-20 39s-33-19-20-39Z"/>
    <path d="M44 78H18M47 89H20M73 78h26M70 89h27"/>
  </g>
  <g fill="#f0a9b8" opacity=".28">
    <path d="M130 46c15-9 35 9 22 25-8 10-27 7-27-8 0-7 2-12 5-17Z"/>
    <circle cx="44" cy="159" r="6"/>
    <circle cx="186" cy="50" r="4"/>
  </g>
</svg>
