<svg xmlns="http://www.w3.org/2000/svg" viewBox="0 0 240 240" role="img" aria-label="Corgi mascot">
  <defs>
    <linearGradient id="fur" x1="55" y1="35" x2="185" y2="207" gradientUnits="userSpaceOnUse">
      <stop stop-color="#efbb5f"/>
      <stop offset="1" stop-color="#cf7b32"/>
    </linearGradient>
    <linearGradient id="cream" x1="77" y1="109" x2="163" y2="187" gradientUnits="userSpaceOnUse">
      <stop stop-color="#fff4df"/>
      <stop offset="1" stop-color="#ffdca8"/>
    </linearGradient>
    <filter id="softShadow" x="-20%" y="-20%" width="140%" height="150%">
      <feDropShadow dx="0" dy="12" stdDeviation="10" flood-color="#6b3f14" flood-opacity=".22"/>
    </filter>
  </defs>
  <g filter="url(#softShadow)" stroke="#5b371e" stroke-linecap="round" stroke-linejoin="round">
    <path d="M65 100 39 31l68 44Z" fill="url(#fur)" stroke-width="6"/>
    <path d="M175 100 201 31l-68 44Z" fill="url(#fur)" stroke-width="6"/>
    <path d="M75 91c12-44 78-49 90-1 26 15 38 42 30 72-9 34-41 50-75 50s-66-16-75-50c-8-30 4-56 30-71Z" fill="url(#fur)" stroke-width="6"/>
    <path d="M60 51 93 80 78 101Z" fill="#ffd39a" stroke-width="0"/>
    <path d="M180 51 147 80 162 101Z" fill="#ffd39a" stroke-width="0"/>
    <path d="M94 82h52l-26-47Z" fill="#fff4df" stroke-width="5"/>
    <path d="M77 130c9-34 77-34 86 0 8 32-10 56-43 56s-51-24-43-56Z" fill="url(#cream)" stroke-width="0"/>
    <circle cx="93" cy="124" r="8" fill="#3c2418" stroke-width="0"/>
    <circle cx="147" cy="124" r="8" fill="#3c2418" stroke-width="0"/>
    <circle cx="96" cy="121" r="2.4" fill="#fff8ee" stroke-width="0"/>
    <circle cx="150" cy="121" r="2.4" fill="#fff8ee" stroke-width="0"/>
    <path d="M113 147h14l-7 9Z" fill="#3c2418" stroke-width="0"/>
    <path d="M101 164c11 10 27 10 38 0" fill="none" stroke="#3c2418" stroke-width="5"/>
    <circle cx="80" cy="149" r="10" fill="#f8a69b" opacity=".6" stroke-width="0"/>
    <circle cx="160" cy="149" r="10" fill="#f8a69b" opacity=".6" stroke-width="0"/>
    <path d="M82 199c23 13 53 13 76 0" fill="none" stroke="#b7682e" stroke-width="10"/>
  </g>
  <g fill="#60a5fa" opacity=".82">
    <circle cx="41" cy="65" r="6"/>
    <circle cx="201" cy="158" r="5"/>
  </g>
</svg>
