<svg xmlns="http://www.w3.org/2000/svg" viewBox="0 0 240 240" role="img" aria-label="Hamster mascot">
  <defs>
    <linearGradient id="fur" x1="52" y1="42" x2="185" y2="209" gradientUnits="userSpaceOnUse">
      <stop stop-color="#e0b06f"/>
      <stop offset="1" stop-color="#bd7a3a"/>
    </linearGradient>
    <linearGradient id="belly" x1="76" y1="110" x2="164" y2="190" gradientUnits="userSpaceOnUse">
      <stop stop-color="#ffe9b8"/>
      <stop offset="1" stop-color="#ffd08a"/>
    </linearGradient>
    <filter id="softShadow" x="-20%" y="-20%" width="140%" height="150%">
      <feDropShadow dx="0" dy="12" stdDeviation="10" flood-color="#744515" flood-opacity=".2"/>
    </filter>
  </defs>
  <g filter="url(#softShadow)" stroke="#5a351f" stroke-linecap="round" stroke-linejoin="round">
    <circle cx="74" cy="82" r="34" fill="url(#fur)" stroke-width="6"/>
    <circle cx="166" cy="82" r="34" fill="url(#fur)" stroke-width="6"/>
    <circle cx="74" cy="82" r="17" fill="#ffe0aa" stroke-width="0"/>
    <circle cx="166" cy="82" r="17" fill="#ffe0aa" stroke-width="0"/>
    <circle cx="120" cy="131" r="70" fill="url(#fur)" stroke-width="6"/>
    <ellipse cx="120" cy="151" rx="48" ry="36" fill="url(#belly)" stroke-width="0"/>
    <circle cx="95" cy="123" r="8" fill="#3c2418" stroke-width="0"/>
    <circle cx="145" cy="123" r="8" fill="#3c2418" stroke-width="0"/>
    <circle cx="98" cy="120" r="2.4" fill="#fff8ee" stroke-width="0"/>
    <circle cx="148" cy="120" r="2.4" fill="#fff8ee" stroke-width="0"/>
    <path d="M113 146h14l-7 9Z" fill="#3c2418" stroke-width="0"/>
    <path d="M101 163c10 9 28 9 38 0" fill="none" stroke="#3c2418" stroke-width="5"/>
    <circle cx="84" cy="149" r="13" fill="#f4a7a1" opacity=".62" stroke-width="0"/>
    <circle cx="156" cy="149" r="13" fill="#f4a7a1" opacity=".62" stroke-width="0"/>
    <path d="M80 200c25 13 55 13 80 0" fill="none" stroke="#a7682e" stroke-width="10"/>
  </g>
  <g fill="#f59e0b" stroke="#7c4a18" stroke-width="2" stroke-linejoin="round">
    <path d="M43 167c8 3 12 12 8 21-8-3-12-12-8-21Z"/>
    <path d="M197 165c-8 3-12 12-8 21 8-3 12-12 8-21Z"/>
  </g>
</svg>
