<svg xmlns="http://www.w3.org/2000/svg" viewBox="0 0 240 240" role="img" aria-label="Black Shiba mascot">
  <defs>
    <linearGradient id="fur" x1="54" y1="38" x2="184" y2="210" gradientUnits="userSpaceOnUse">
      <stop stop-color="#3a4048"/>
      <stop offset=".58" stop-color="#171c22"/>
      <stop offset="1" stop-color="#090d12"/>
    </linearGradient>
    <linearGradient id="muzzle" x1="77" y1="120" x2="162" y2="188" gradientUnits="userSpaceOnUse">
      <stop stop-color="#303844"/>
      <stop offset="1" stop-color="#151a20"/>
    </linearGradient>
    <linearGradient id="chest" x1="97" y1="168" x2="143" y2="218" gradientUnits="userSpaceOnUse">
      <stop stop-color="#f5dec0"/>
      <stop offset="1" stop-color="#c89a6d"/>
    </linearGradient>
    <filter id="softShadow" x="-20%" y="-20%" width="140%" height="150%">
      <feDropShadow dx="0" dy="13" stdDeviation="11" flood-color="#05070a" flood-opacity=".34"/>
    </filter>
  </defs>
  <g filter="url(#softShadow)" stroke="#090d12" stroke-linecap="round" stroke-linejoin="round">
    <path d="M68 98 45 39c20 6 35 18 48 40Z" fill="url(#fur)" stroke-width="6"/>
    <path d="M172 98 195 39c-20 6-35 18-48 40Z" fill="url(#fur)" stroke-width="6"/>
    <path d="M76 90c12-42 76-49 88-2 27 15 40 43 32 75-9 36-41 52-76 52s-67-16-76-52c-8-32 5-58 32-73Z" fill="url(#fur)" stroke-width="6"/>
    <path d="M57 53 91 80 75 103Z" fill="#242b34" stroke-width="0"/>
    <path d="M183 53 149 80 165 103Z" fill="#242b34" stroke-width="0"/>
    <path d="M78 134c9-34 75-34 84 0 8 31-9 56-42 56s-50-25-42-56Z" fill="url(#muzzle)" stroke-width="0"/>
    <path d="M103 181c6 13 28 13 34 0l18 27c-21 11-49 11-70 0Z" fill="url(#chest)" stroke-width="0" opacity=".96"/>
    <circle cx="94" cy="123" r="8.4" fill="#2a1712" stroke-width="0"/>
    <circle cx="146" cy="123" r="8.4" fill="#2a1712" stroke-width="0"/>
    <circle cx="97" cy="120" r="2.8" fill="#facc15" stroke-width="0"/>
    <circle cx="149" cy="120" r="2.8" fill="#facc15" stroke-width="0"/>
    <path d="M113 147h14l-7 9Z" fill="#0d0f12" stroke-width="0"/>
    <path d="M101 164c11 11 27 11 38 0" fill="none" stroke="#0d0f12" stroke-width="5"/>
    <circle cx="81" cy="150" r="9" fill="#8b5a47" opacity=".36" stroke-width="0"/>
    <circle cx="159" cy="150" r="9" fill="#8b5a47" opacity=".36" stroke-width="0"/>
    <path d="M82 198c24 15 52 15 76 0" fill="none" stroke="#05070a" stroke-width="10"/>
    <path d="M85 187c18 13 52 13 70 0" fill="none" stroke="#38bdf8" stroke-width="7"/>
    <circle cx="120" cy="196" r="8" fill="#facc15" stroke="#6b4a00" stroke-width="3"/>
    <path d="M116 197h8" stroke="#6b4a00" stroke-width="2"/>
  </g>
  <g fill="#38bdf8" opacity=".78">
    <path d="M42 137c11-8 25 5 16 16-6 8-21 4-19-8"/>
    <circle cx="203" cy="78" r="5"/>
    <circle cx="40" cy="184" r="4"/>
  </g>
  <g fill="#facc15" opacity=".82">
    <circle cx="58" cy="62" r="3"/>
    <circle cx="184" cy="164" r="4"/>
  </g>
</svg>
