<svg xmlns="http://www.w3.org/2000/svg" viewBox="0 0 220 220">
  <g fill="none" stroke="#e57b2e" stroke-width="5" stroke-linecap="round" stroke-linejoin="round" opacity=".34">
    <path d="M36 58c9 10 25 10 34 0"/>
    <path d="M142 156c9 10 25 10 34 0"/>
    <path d="M132 55c18-16 46 8 27 28-14 15-40 5-31-14"/>
  </g>
  <g fill="#e57b2e" opacity=".3">
    <circle cx="34" cy="40" r="7"/>
    <circle cx="52" cy="32" r="6"/>
    <circle cx="69" cy="42" r="6"/>
    <ellipse cx="52" cy="56" rx="16" ry="10"/>
    <circle cx="132" cy="138" r="7"/>
    <circle cx="150" cy="130" r="6"/>
    <circle cx="167" cy="140" r="6"/>
    <ellipse cx="150" cy="154" rx="16" ry="10"/>
    <circle cx="92" cy="39" r="3"/>
    <circle cx="45" cy="173" r="4"/>
    <circle cx="188" cy="88" r="3"/>
  </g>
</svg>
