<svg xmlns="http://www.w3.org/2000/svg" viewBox="0 0 32 32" role="img" aria-label="Cat paw">
  <g fill="#4b5268" stroke="#151a28" stroke-width="1.8" stroke-linejoin="round">
    <ellipse cx="9" cy="10" rx="3.5" ry="4.8" transform="rotate(-18 9 10)"/>
    <ellipse cx="16" cy="7.8" rx="3.6" ry="5"/>
    <ellipse cx="23" cy="10" rx="3.5" ry="4.8" transform="rotate(18 23 10)"/>
    <path d="M7.2 22.6c.6-5.1 4.1-8.4 8.8-8.4s8.2 3.3 8.8 8.4c.4 3.1-1.8 5.2-4.8 4.4-1.8-.5-2.5-1.3-4-1.3s-2.2.8-4 1.3c-3 .8-5.2-1.3-4.8-4.4Z"/>
  </g>
  <g fill="#f0a9b8">
    <ellipse cx="9" cy="10" rx="1.45" ry="2"/>
    <ellipse cx="16" cy="7.8" rx="1.5" ry="2.1"/>
    <ellipse cx="23" cy="10" rx="1.45" ry="2"/>
    <ellipse cx="16" cy="21.3" rx="4.7" ry="3.5"/>
  </g>
</svg>
