<svg xmlns="http://www.w3.org/2000/svg" viewBox="0 0 32 32" role="img" aria-label="K-Ink paw">
  <g fill="#151313" stroke="#050403" stroke-width="1.8" stroke-linejoin="round">
    <ellipse cx="9" cy="10" rx="3.7" ry="4.8" transform="rotate(-22 9 10)"/>
    <ellipse cx="16" cy="7.8" rx="3.8" ry="5"/>
    <ellipse cx="23" cy="10" rx="3.7" ry="4.8" transform="rotate(22 23 10)"/>
    <path d="M7.3 22.4c.6-5 4.1-8.3 8.7-8.3s8.1 3.3 8.7 8.3c.4 3-1.8 5.2-4.7 4.4-1.8-.5-2.5-1.3-4-1.3s-2.2.8-4 1.3c-2.9.8-5.1-1.4-4.7-4.4Z"/>
  </g>
  <g fill="#a98fa0" opacity=".9">
    <ellipse cx="9" cy="10" rx="1.25" ry="1.85"/>
    <ellipse cx="16" cy="7.8" rx="1.3" ry="1.95"/>
    <ellipse cx="23" cy="10" rx="1.25" ry="1.85"/>
  </g>
  <path d="M11.2 21.3c.7-2.5 2.5-4.1 4.8-4.1s4.1 1.6 4.8 4.1" fill="none" stroke="#d8becb" stroke-width="1.7" stroke-linecap="round"/>
  <ellipse cx="16" cy="22" rx="4.5" ry="3.2" fill="#2a2522" opacity=".95"/>
  <path d="M14.5 20.9c.5-.6 1-.8 1.5-.8s1 .2 1.5.8" fill="none" stroke="#a8b8ca" stroke-width="1.25" stroke-linecap="round"/>
</svg>
