<svg xmlns="http://www.w3.org/2000/svg" viewBox="0 0 32 32" role="img" aria-label="K-Ink paw">
  <g fill="#111827" stroke="#05070a" stroke-width="1.8" stroke-linejoin="round">
    <ellipse cx="9" cy="10" rx="3.7" ry="4.8" transform="rotate(-22 9 10)"/>
    <ellipse cx="16" cy="7.8" rx="3.8" ry="5" />
    <ellipse cx="23" cy="10" rx="3.7" ry="4.8" transform="rotate(22 23 10)"/>
    <path d="M7.3 22.4c.6-5 4.1-8.3 8.7-8.3s8.1 3.3 8.7 8.3c.4 3-1.8 5.2-4.7 4.4-1.8-.5-2.5-1.3-4-1.3s-2.2.8-4 1.3c-2.9.8-5.1-1.4-4.7-4.4Z"/>
  </g>
  <g fill="#38bdf8" opacity=".9">
    <ellipse cx="9" cy="10" rx="1.25" ry="1.8"/>
    <ellipse cx="16" cy="7.8" rx="1.3" ry="1.9"/>
    <ellipse cx="23" cy="10" rx="1.25" ry="1.8"/>
  </g>
  <circle cx="16" cy="21.2" r="3.4" fill="#facc15" opacity=".88"/>
</svg>
